<?xml version="1.0" encoding="utf-8" standalone="no"?>
<!DOCTYPE svg PUBLIC "-//W3C//DTD SVG 1.1//EN"
  "http://www.w3.org/Graphics/SVG/1.1/DTD/svg11.dtd">
<!-- Created with matplotlib (https://matplotlib.org/) -->
<svg height="360pt" version="1.1" viewBox="0 0 360 360" width="360pt" xmlns="http://www.w3.org/2000/svg" xmlns:xlink="http://www.w3.org/1999/xlink">
 <defs>
  <style type="text/css">
*{stroke-linecap:butt;stroke-linejoin:round;}
  </style>
 </defs>
 <g id="figure_1">
  <g id="patch_1">
   <path d="M 0 360 
L 360 360 
L 360 0 
L 0 0 
z
" style="fill:#ffffff;"/>
  </g>
  <g id="patch_2">
   <path d="M 45 315 
L 324 315 
L 324 43.2 
L 45 43.2 
z
" style="fill:#ffffff;"/>
  </g>
  <g id="pane3d_1">
   <g id="patch_3">
    <path d="M 81.985761 254.941779 
L 161.837021 188.302577 
L 160.507582 60.966001 
L 76.204092 120.839953 
" style="fill:#f2f2f2;opacity:0.5;stroke:#f2f2f2;stroke-linejoin:miter;"/>
   </g>
  </g>
  <g id="pane3d_2">
   <g id="patch_4">
    <path d="M 161.837021 188.302577 
L 291.188554 225.558191 
L 296.600468 94.381832 
L 160.507582 60.966001 
" style="fill:#e6e6e6;opacity:0.5;stroke:#e6e6e6;stroke-linejoin:miter;"/>
   </g>
  </g>
  <g id="pane3d_3">
   <g id="patch_5">
    <path d="M 81.985761 254.941779 
L 218.081053 298.332012 
L 291.188554 225.558191 
L 161.837021 188.302577 
" style="fill:#ececec;opacity:0.5;stroke:#ececec;stroke-linejoin:miter;"/>
   </g>
  </g>
  <g id="axis3d_1">
   <g id="line2d_1">
    <path d="M 81.985761 254.941779 
L 218.081053 298.332012 
" style="fill:none;stroke:#000000;stroke-linecap:square;stroke-width:0.8;"/>
   </g>
   <g id="Line3DCollection_1">
    <path d="M 90.283009 257.587128 
L 169.747998 190.581084 
L 168.813846 63.005495 
" style="fill:none;stroke:#b0b0b0;stroke-width:0.8;"/>
    <path d="M 113.28597 264.920988 
L 191.663144 196.893048 
L 191.835575 68.65818 
" style="fill:none;stroke:#b0b0b0;stroke-width:0.8;"/>
    <path d="M 136.654453 272.371385 
L 213.901079 203.297981 
L 215.213758 74.398388 
" style="fill:none;stroke:#b0b0b0;stroke-width:0.8;"/>
    <path d="M 160.397242 279.941118 
L 236.468987 209.797952 
L 238.956737 80.228167 
" style="fill:none;stroke:#b0b0b0;stroke-width:0.8;"/>
    <path d="M 184.523402 287.63308 
L 259.374267 216.395093 
L 263.073119 86.149629 
" style="fill:none;stroke:#b0b0b0;stroke-width:0.8;"/>
    <path d="M 209.042294 295.450253 
L 282.624541 223.091598 
L 287.571783 92.164956 
" style="fill:none;stroke:#b0b0b0;stroke-width:0.8;"/>
   </g>
   <g id="xtick_1">
    <g id="line2d_2">
     <path d="M 90.967641 257.009836 
L 88.911192 258.743864 
" style="fill:none;stroke:#000000;stroke-linecap:square;stroke-width:0.8;"/>
    </g>
    <g id="text_1">
     <!-- 1.5 -->
     <defs>
      <path d="M 12.40625 8.296875 
L 28.515625 8.296875 
L 28.515625 63.921875 
L 10.984375 60.40625 
L 10.984375 69.390625 
L 28.421875 72.90625 
L 38.28125 72.90625 
L 38.28125 8.296875 
L 54.390625 8.296875 
L 54.390625 0 
L 12.40625 0 
z
" id="DejaVuSans-49"/>
      <path d="M 10.6875 12.40625 
L 21 12.40625 
L 21 0 
L 10.6875 0 
z
" id="DejaVuSans-46"/>
      <path d="M 10.796875 72.90625 
L 49.515625 72.90625 
L 49.515625 64.59375 
L 19.828125 64.59375 
L 19.828125 46.734375 
Q 21.96875 47.46875 24.109375 47.828125 
Q 26.265625 48.1875 28.421875 48.1875 
Q 40.625 48.1875 47.75 41.5 
Q 54.890625 34.8125 54.890625 23.390625 
Q 54.890625 11.625 47.5625 5.09375 
Q 40.234375 -1.421875 26.90625 -1.421875 
Q 22.3125 -1.421875 17.546875 -0.640625 
Q 12.796875 0.140625 7.71875 1.703125 
L 7.71875 11.625 
Q 12.109375 9.234375 16.796875 8.0625 
Q 21.484375 6.890625 26.703125 6.890625 
Q 35.15625 6.890625 40.078125 11.328125 
Q 45.015625 15.765625 45.015625 23.390625 
Q 45.015625 31 40.078125 35.4375 
Q 35.15625 39.890625 26.703125 39.890625 
Q 22.75 39.890625 18.8125 39.015625 
Q 14.890625 38.140625 10.796875 36.28125 
z
" id="DejaVuSans-53"/>
     </defs>
     <g transform="translate(75.858991 281.222845)scale(0.1 -0.1)">
      <use xlink:href="#DejaVuSans-49"/>
      <use x="63.623047" xlink:href="#DejaVuSans-46"/>
      <use x="95.410156" xlink:href="#DejaVuSans-53"/>
     </g>
    </g>
   </g>
   <g id="xtick_2">
    <g id="line2d_3">
     <path d="M 113.961609 264.334562 
L 111.93215 266.096043 
" style="fill:none;stroke:#000000;stroke-linecap:square;stroke-width:0.8;"/>
    </g>
    <g id="text_2">
     <!-- 1.6 -->
     <defs>
      <path d="M 33.015625 40.375 
Q 26.375 40.375 22.484375 35.828125 
Q 18.609375 31.296875 18.609375 23.390625 
Q 18.609375 15.53125 22.484375 10.953125 
Q 26.375 6.390625 33.015625 6.390625 
Q 39.65625 6.390625 43.53125 10.953125 
Q 47.40625 15.53125 47.40625 23.390625 
Q 47.40625 31.296875 43.53125 35.828125 
Q 39.65625 40.375 33.015625 40.375 
z
M 52.59375 71.296875 
L 52.59375 62.3125 
Q 48.875 64.0625 45.09375 64.984375 
Q 41.3125 65.921875 37.59375 65.921875 
Q 27.828125 65.921875 22.671875 59.328125 
Q 17.53125 52.734375 16.796875 39.40625 
Q 19.671875 43.65625 24.015625 45.921875 
Q 28.375 48.1875 33.59375 48.1875 
Q 44.578125 48.1875 50.953125 41.515625 
Q 57.328125 34.859375 57.328125 23.390625 
Q 57.328125 12.15625 50.6875 5.359375 
Q 44.046875 -1.421875 33.015625 -1.421875 
Q 20.359375 -1.421875 13.671875 8.265625 
Q 6.984375 17.96875 6.984375 36.375 
Q 6.984375 53.65625 15.1875 63.9375 
Q 23.390625 74.21875 37.203125 74.21875 
Q 40.921875 74.21875 44.703125 73.484375 
Q 48.484375 72.75 52.59375 71.296875 
z
" id="DejaVuSans-54"/>
     </defs>
     <g transform="translate(98.859011 288.698747)scale(0.1 -0.1)">
      <use xlink:href="#DejaVuSans-49"/>
      <use x="63.623047" xlink:href="#DejaVuSans-46"/>
      <use x="95.410156" xlink:href="#DejaVuSans-54"/>
     </g>
    </g>
   </g>
   <g id="xtick_3">
    <g id="line2d_4">
     <path d="M 137.320728 271.775606 
L 135.319379 273.565198 
" style="fill:none;stroke:#000000;stroke-linecap:square;stroke-width:0.8;"/>
    </g>
    <g id="text_3">
     <!-- 1.7 -->
     <defs>
      <path d="M 8.203125 72.90625 
L 55.078125 72.90625 
L 55.078125 68.703125 
L 28.609375 0 
L 18.3125 0 
L 43.21875 64.59375 
L 8.203125 64.59375 
z
" id="DejaVuSans-55"/>
     </defs>
     <g transform="translate(122.22528 296.293693)scale(0.1 -0.1)">
      <use xlink:href="#DejaVuSans-49"/>
      <use x="63.623047" xlink:href="#DejaVuSans-46"/>
      <use x="95.410156" xlink:href="#DejaVuSans-55"/>
     </g>
    </g>
   </g>
   <g id="xtick_4">
    <g id="line2d_5">
     <path d="M 161.053764 279.335762 
L 159.081691 281.154143 
" style="fill:none;stroke:#000000;stroke-linecap:square;stroke-width:0.8;"/>
    </g>
    <g id="text_4">
     <!-- 1.8 -->
     <defs>
      <path d="M 31.78125 34.625 
Q 24.75 34.625 20.71875 30.859375 
Q 16.703125 27.09375 16.703125 20.515625 
Q 16.703125 13.921875 20.71875 10.15625 
Q 24.75 6.390625 31.78125 6.390625 
Q 38.8125 6.390625 42.859375 10.171875 
Q 46.921875 13.96875 46.921875 20.515625 
Q 46.921875 27.09375 42.890625 30.859375 
Q 38.875 34.625 31.78125 34.625 
z
M 21.921875 38.8125 
Q 15.578125 40.375 12.03125 44.71875 
Q 8.5 49.078125 8.5 55.328125 
Q 8.5 64.0625 14.71875 69.140625 
Q 20.953125 74.21875 31.78125 74.21875 
Q 42.671875 74.21875 48.875 69.140625 
Q 55.078125 64.0625 55.078125 55.328125 
Q 55.078125 49.078125 51.53125 44.71875 
Q 48 40.375 41.703125 38.8125 
Q 48.828125 37.15625 52.796875 32.3125 
Q 56.78125 27.484375 56.78125 20.515625 
Q 56.78125 9.90625 50.3125 4.234375 
Q 43.84375 -1.421875 31.78125 -1.421875 
Q 19.734375 -1.421875 13.25 4.234375 
Q 6.78125 9.90625 6.78125 20.515625 
Q 6.78125 27.484375 10.78125 32.3125 
Q 14.796875 37.15625 21.921875 38.8125 
z
M 18.3125 54.390625 
Q 18.3125 48.734375 21.84375 45.5625 
Q 25.390625 42.390625 31.78125 42.390625 
Q 38.140625 42.390625 41.71875 45.5625 
Q 45.3125 48.734375 45.3125 54.390625 
Q 45.3125 60.0625 41.71875 63.234375 
Q 38.140625 66.40625 31.78125 66.40625 
Q 25.390625 66.40625 21.84375 63.234375 
Q 18.3125 60.0625 18.3125 54.390625 
z
" id="DejaVuSans-56"/>
     </defs>
     <g transform="translate(145.966615 304.010551)scale(0.1 -0.1)">
      <use xlink:href="#DejaVuSans-49"/>
      <use x="63.623047" xlink:href="#DejaVuSans-46"/>
      <use x="95.410156" xlink:href="#DejaVuSans-56"/>
     </g>
    </g>
   </g>
   <g id="xtick_5">
    <g id="line2d_6">
     <path d="M 185.169768 287.017913 
L 183.228182 288.865782 
" style="fill:none;stroke:#000000;stroke-linecap:square;stroke-width:0.8;"/>
    </g>
    <g id="text_5">
     <!-- 1.9 -->
     <defs>
      <path d="M 10.984375 1.515625 
L 10.984375 10.5 
Q 14.703125 8.734375 18.5 7.8125 
Q 22.3125 6.890625 25.984375 6.890625 
Q 35.75 6.890625 40.890625 13.453125 
Q 46.046875 20.015625 46.78125 33.40625 
Q 43.953125 29.203125 39.59375 26.953125 
Q 35.25 24.703125 29.984375 24.703125 
Q 19.046875 24.703125 12.671875 31.3125 
Q 6.296875 37.9375 6.296875 49.421875 
Q 6.296875 60.640625 12.9375 67.421875 
Q 19.578125 74.21875 30.609375 74.21875 
Q 43.265625 74.21875 49.921875 64.515625 
Q 56.59375 54.828125 56.59375 36.375 
Q 56.59375 19.140625 48.40625 8.859375 
Q 40.234375 -1.421875 26.421875 -1.421875 
Q 22.703125 -1.421875 18.890625 -0.6875 
Q 15.09375 0.046875 10.984375 1.515625 
z
M 30.609375 32.421875 
Q 37.25 32.421875 41.125 36.953125 
Q 45.015625 41.5 45.015625 49.421875 
Q 45.015625 57.28125 41.125 61.84375 
Q 37.25 66.40625 30.609375 66.40625 
Q 23.96875 66.40625 20.09375 61.84375 
Q 16.21875 57.28125 16.21875 49.421875 
Q 16.21875 41.5 20.09375 36.953125 
Q 23.96875 32.421875 30.609375 32.421875 
z
" id="DejaVuSans-57"/>
     </defs>
     <g transform="translate(170.092121 311.852279)scale(0.1 -0.1)">
      <use xlink:href="#DejaVuSans-49"/>
      <use x="63.623047" xlink:href="#DejaVuSans-46"/>
      <use x="95.410156" xlink:href="#DejaVuSans-57"/>
     </g>
    </g>
   </g>
   <g id="xtick_6">
    <g id="line2d_7">
     <path d="M 209.678085 294.825034 
L 207.768245 296.703116 
" style="fill:none;stroke:#000000;stroke-linecap:square;stroke-width:0.8;"/>
    </g>
    <g id="text_6">
     <!-- 2.0 -->
     <defs>
      <path d="M 19.1875 8.296875 
L 53.609375 8.296875 
L 53.609375 0 
L 7.328125 0 
L 7.328125 8.296875 
Q 12.9375 14.109375 22.625 23.890625 
Q 32.328125 33.6875 34.8125 36.53125 
Q 39.546875 41.84375 41.421875 45.53125 
Q 43.3125 49.21875 43.3125 52.78125 
Q 43.3125 58.59375 39.234375 62.25 
Q 35.15625 65.921875 28.609375 65.921875 
Q 23.96875 65.921875 18.8125 64.3125 
Q 13.671875 62.703125 7.8125 59.421875 
L 7.8125 69.390625 
Q 13.765625 71.78125 18.9375 73 
Q 24.125 74.21875 28.421875 74.21875 
Q 39.75 74.21875 46.484375 68.546875 
Q 53.21875 62.890625 53.21875 53.421875 
Q 53.21875 48.921875 51.53125 44.890625 
Q 49.859375 40.875 45.40625 35.40625 
Q 44.1875 33.984375 37.640625 27.21875 
Q 31.109375 20.453125 19.1875 8.296875 
z
" id="DejaVuSans-50"/>
      <path d="M 31.78125 66.40625 
Q 24.171875 66.40625 20.328125 58.90625 
Q 16.5 51.421875 16.5 36.375 
Q 16.5 21.390625 20.328125 13.890625 
Q 24.171875 6.390625 31.78125 6.390625 
Q 39.453125 6.390625 43.28125 13.890625 
Q 47.125 21.390625 47.125 36.375 
Q 47.125 51.421875 43.28125 58.90625 
Q 39.453125 66.40625 31.78125 66.40625 
z
M 31.78125 74.21875 
Q 44.046875 74.21875 50.515625 64.515625 
Q 56.984375 54.828125 56.984375 36.375 
Q 56.984375 17.96875 50.515625 8.265625 
Q 44.046875 -1.421875 31.78125 -1.421875 
Q 19.53125 -1.421875 13.0625 8.265625 
Q 6.59375 17.96875 6.59375 36.375 
Q 6.59375 54.828125 13.0625 64.515625 
Q 19.53125 74.21875 31.78125 74.21875 
z
" id="DejaVuSans-48"/>
     </defs>
     <g transform="translate(194.611197 319.821933)scale(0.1 -0.1)">
      <use xlink:href="#DejaVuSans-50"/>
      <use x="63.623047" xlink:href="#DejaVuSans-46"/>
      <use x="95.410156" xlink:href="#DejaVuSans-48"/>
     </g>
    </g>
   </g>
  </g>
  <g id="axis3d_2">
   <g id="line2d_8">
    <path d="M 291.188554 225.558191 
L 218.081053 298.332012 
" style="fill:none;stroke:#000000;stroke-linecap:square;stroke-width:0.8;"/>
   </g>
   <g id="Line3DCollection_2">
    <path d="M 81.976634 116.740183 
L 87.433616 250.395317 
L 223.084423 293.351478 
" style="fill:none;stroke:#b0b0b0;stroke-width:0.8;"/>
    <path d="M 97.508042 105.709479 
L 102.10586 238.150719 
L 236.548179 279.949174 
" style="fill:none;stroke:#b0b0b0;stroke-width:0.8;"/>
    <path d="M 112.611455 94.982747 
L 116.393998 226.226672 
L 249.643516 266.913608 
" style="fill:none;stroke:#b0b0b0;stroke-width:0.8;"/>
    <path d="M 127.304324 84.54759 
L 130.312919 214.610753 
L 262.38535 254.22993 
" style="fill:none;stroke:#b0b0b0;stroke-width:0.8;"/>
    <path d="M 141.603163 74.392281 
L 143.876752 203.29117 
L 274.787806 241.884083 
" style="fill:none;stroke:#b0b0b0;stroke-width:0.8;"/>
    <path d="M 155.523612 64.505711 
L 157.098913 192.256726 
L 286.864264 229.862745 
" style="fill:none;stroke:#b0b0b0;stroke-width:0.8;"/>
   </g>
   <g id="xtick_7">
    <g id="line2d_9">
     <path d="M 221.949145 292.991973 
L 225.357516 294.071292 
" style="fill:none;stroke:#000000;stroke-linecap:square;stroke-width:0.8;"/>
    </g>
    <g id="text_7">
     <!-- 50 -->
     <g transform="translate(227.947228 314.99957)scale(0.1 -0.1)">
      <use xlink:href="#DejaVuSans-53"/>
      <use x="63.623047" xlink:href="#DejaVuSans-48"/>
     </g>
    </g>
   </g>
   <g id="xtick_8">
    <g id="line2d_10">
     <path d="M 235.423704 279.599571 
L 238.799609 280.649149 
" style="fill:none;stroke:#000000;stroke-linecap:square;stroke-width:0.8;"/>
    </g>
    <g id="text_8">
     <!-- 60 -->
     <g transform="translate(241.247701 301.410106)scale(0.1 -0.1)">
      <use xlink:href="#DejaVuSans-54"/>
      <use x="63.623047" xlink:href="#DejaVuSans-48"/>
     </g>
    </g>
   </g>
   <g id="xtick_9">
    <g id="line2d_11">
     <path d="M 248.52968 266.573505 
L 251.873609 267.594553 
" style="fill:none;stroke:#000000;stroke-linecap:square;stroke-width:0.8;"/>
    </g>
    <g id="text_9">
     <!-- 70 -->
     <g transform="translate(254.184426 288.192294)scale(0.1 -0.1)">
      <use xlink:href="#DejaVuSans-55"/>
      <use x="63.623047" xlink:href="#DejaVuSans-48"/>
     </g>
    </g>
   </g>
   <g id="xtick_10">
    <g id="line2d_12">
     <path d="M 261.281993 253.898945 
L 264.59443 254.892612 
" style="fill:none;stroke:#000000;stroke-linecap:square;stroke-width:0.8;"/>
    </g>
    <g id="text_10">
     <!-- 80 -->
     <g transform="translate(266.772124 275.331093)scale(0.1 -0.1)">
      <use xlink:href="#DejaVuSans-56"/>
      <use x="63.623047" xlink:href="#DejaVuSans-48"/>
     </g>
    </g>
   </g>
   <g id="xtick_11">
    <g id="line2d_13">
     <path d="M 273.694769 241.561852 
L 276.976193 242.529225 
" style="fill:none;stroke:#000000;stroke-linecap:square;stroke-width:0.8;"/>
    </g>
    <g id="text_11">
     <!-- 90 -->
     <g transform="translate(279.024732 262.812263)scale(0.1 -0.1)">
      <use xlink:href="#DejaVuSans-57"/>
      <use x="63.623047" xlink:href="#DejaVuSans-48"/>
     </g>
    </g>
   </g>
   <g id="xtick_12">
    <g id="line2d_14">
     <path d="M 285.781389 229.548927 
L 289.032276 230.491035 
" style="fill:none;stroke:#000000;stroke-linecap:square;stroke-width:0.8;"/>
    </g>
    <g id="text_12">
     <!-- 100 -->
     <g transform="translate(287.774205 250.622312)scale(0.1 -0.1)">
      <use xlink:href="#DejaVuSans-49"/>
      <use x="63.623047" xlink:href="#DejaVuSans-48"/>
      <use x="127.246094" xlink:href="#DejaVuSans-48"/>
     </g>
    </g>
   </g>
  </g>
  <g id="axis3d_3">
   <g id="line2d_15">
    <path d="M 291.188554 225.558191 
L 296.600468 94.381832 
" style="fill:none;stroke:#000000;stroke-linecap:square;stroke-width:0.8;"/>
   </g>
   <g id="Line3DCollection_3">
    <path d="M 291.680008 213.646129 
L 161.716056 176.716282 
L 81.461552 242.783102 
" style="fill:none;stroke:#b0b0b0;stroke-width:0.8;"/>
    <path d="M 292.465905 194.597209 
L 161.522717 158.197837 
L 80.622933 223.331918 
" style="fill:none;stroke:#b0b0b0;stroke-width:0.8;"/>
    <path d="M 293.263838 175.256534 
L 161.326542 139.407751 
L 79.771041 203.57287 
" style="fill:none;stroke:#b0b0b0;stroke-width:0.8;"/>
    <path d="M 294.074088 155.617351 
L 161.127468 120.340004 
L 78.905558 183.498593 
" style="fill:none;stroke:#b0b0b0;stroke-width:0.8;"/>
    <path d="M 294.89694 135.672693 
L 160.92543 100.988395 
L 78.026156 163.101481 
" style="fill:none;stroke:#b0b0b0;stroke-width:0.8;"/>
    <path d="M 295.732691 115.415379 
L 160.720362 81.346538 
L 77.132497 142.373683 
" style="fill:none;stroke:#b0b0b0;stroke-width:0.8;"/>
   </g>
   <g id="xtick_13">
    <g id="line2d_16">
     <path d="M 290.595476 213.337954 
L 293.851336 214.263122 
" style="fill:none;stroke:#000000;stroke-linecap:square;stroke-width:0.8;"/>
    </g>
    <g id="text_13">
     <!-- 15 -->
     <g transform="translate(301.593747 218.988626)scale(0.1 -0.1)">
      <use xlink:href="#DejaVuSans-49"/>
      <use x="63.623047" xlink:href="#DejaVuSans-53"/>
     </g>
    </g>
   </g>
   <g id="xtick_14">
    <g id="line2d_17">
     <path d="M 291.372858 194.293366 
L 294.654297 195.205535 
" style="fill:none;stroke:#000000;stroke-linecap:square;stroke-width:0.8;"/>
    </g>
    <g id="text_14">
     <!-- 20 -->
     <g transform="translate(302.501008 199.97145)scale(0.1 -0.1)">
      <use xlink:href="#DejaVuSans-50"/>
      <use x="63.623047" xlink:href="#DejaVuSans-48"/>
     </g>
    </g>
   </g>
   <g id="xtick_15">
    <g id="line2d_18">
     <path d="M 292.162143 174.957192 
L 295.469566 175.855854 
" style="fill:none;stroke:#000000;stroke-linecap:square;stroke-width:0.8;"/>
    </g>
    <g id="text_15">
     <!-- 25 -->
     <g transform="translate(303.422129 180.663759)scale(0.1 -0.1)">
      <use xlink:href="#DejaVuSans-50"/>
      <use x="63.623047" xlink:href="#DejaVuSans-53"/>
     </g>
    </g>
   </g>
   <g id="xtick_16">
    <g id="line2d_19">
     <path d="M 292.963605 155.322684 
L 296.297426 156.207313 
" style="fill:none;stroke:#000000;stroke-linecap:square;stroke-width:0.8;"/>
    </g>
    <g id="text_16">
     <!-- 30 -->
     <defs>
      <path d="M 40.578125 39.3125 
Q 47.65625 37.796875 51.625 33 
Q 55.609375 28.21875 55.609375 21.1875 
Q 55.609375 10.40625 48.1875 4.484375 
Q 40.765625 -1.421875 27.09375 -1.421875 
Q 22.515625 -1.421875 17.65625 -0.515625 
Q 12.796875 0.390625 7.625 2.203125 
L 7.625 11.71875 
Q 11.71875 9.328125 16.59375 8.109375 
Q 21.484375 6.890625 26.8125 6.890625 
Q 36.078125 6.890625 40.9375 10.546875 
Q 45.796875 14.203125 45.796875 21.1875 
Q 45.796875 27.640625 41.28125 31.265625 
Q 36.765625 34.90625 28.71875 34.90625 
L 20.21875 34.90625 
L 20.21875 43.015625 
L 29.109375 43.015625 
Q 36.375 43.015625 40.234375 45.921875 
Q 44.09375 48.828125 44.09375 54.296875 
Q 44.09375 59.90625 40.109375 62.90625 
Q 36.140625 65.921875 28.71875 65.921875 
Q 24.65625 65.921875 20.015625 65.03125 
Q 15.375 64.15625 9.8125 62.3125 
L 9.8125 71.09375 
Q 15.4375 72.65625 20.34375 73.4375 
Q 25.25 74.21875 29.59375 74.21875 
Q 40.828125 74.21875 47.359375 69.109375 
Q 53.90625 64.015625 53.90625 55.328125 
Q 53.90625 49.265625 50.4375 45.09375 
Q 46.96875 40.921875 40.578125 39.3125 
z
" id="DejaVuSans-51"/>
     </defs>
     <g transform="translate(304.35743 161.058843)scale(0.1 -0.1)">
      <use xlink:href="#DejaVuSans-51"/>
      <use x="63.623047" xlink:href="#DejaVuSans-48"/>
     </g>
    </g>
   </g>
   <g id="xtick_17">
    <g id="line2d_20">
     <path d="M 293.777529 135.382885 
L 297.138173 136.252933 
" style="fill:none;stroke:#000000;stroke-linecap:square;stroke-width:0.8;"/>
    </g>
    <g id="text_17">
     <!-- 35 -->
     <g transform="translate(305.307241 141.149786)scale(0.1 -0.1)">
      <use xlink:href="#DejaVuSans-51"/>
      <use x="63.623047" xlink:href="#DejaVuSans-53"/>
     </g>
    </g>
   </g>
   <g id="xtick_18">
    <g id="line2d_21">
     <path d="M 294.604207 115.130619 
L 297.992108 115.985517 
" style="fill:none;stroke:#000000;stroke-linecap:square;stroke-width:0.8;"/>
    </g>
    <g id="text_18">
     <!-- 40 -->
     <defs>
      <path d="M 37.796875 64.3125 
L 12.890625 25.390625 
L 37.796875 25.390625 
z
M 35.203125 72.90625 
L 47.609375 72.90625 
L 47.609375 25.390625 
L 58.015625 25.390625 
L 58.015625 17.1875 
L 47.609375 17.1875 
L 47.609375 0 
L 37.796875 0 
L 37.796875 17.1875 
L 4.890625 17.1875 
L 4.890625 26.703125 
z
" id="DejaVuSans-52"/>
     </defs>
     <g transform="translate(306.271902 120.929457)scale(0.1 -0.1)">
      <use xlink:href="#DejaVuSans-52"/>
      <use x="63.623047" xlink:href="#DejaVuSans-48"/>
     </g>
    </g>
   </g>
  </g>
  <g id="axes_1">
   <g id="Poly3DCollection_1">
    <path clip-path="url(#paacc7401b1)" d="M 169.23642 99.809254 
L 182.102037 113.690289 
L 189.527324 99.418256 
L 176.710096 84.974009 
z
" style="fill:#d75445;"/>
    <path clip-path="url(#paacc7401b1)" d="M 156.362078 84.730502 
L 169.23642 99.809254 
L 176.710096 84.974009 
L 163.880858 69.251787 
z
" style="fill:#b40426;"/>
    <path clip-path="url(#paacc7401b1)" d="M 182.102037 113.690289 
L 194.976177 126.54734 
L 202.350193 112.770272 
L 189.527324 99.418256 
z
" style="fill:#ec8165;"/>
    <path clip-path="url(#paacc7401b1)" d="M 194.976177 126.54734 
L 207.873228 138.524183 
L 215.193408 125.18362 
L 202.350193 112.770272 
z
" style="fill:#f6a586;"/>
    <path clip-path="url(#paacc7401b1)" d="M 207.873228 138.524183 
L 220.805323 149.740711 
L 228.069341 136.78624 
L 215.193408 125.18362 
z
" style="fill:#f6bea4;"/>
    <path clip-path="url(#paacc7401b1)" d="M 220.805323 149.740711 
L 233.782786 160.297605 
L 240.988509 147.68548 
L 228.069341 136.78624 
z
" style="fill:#efcfbf;"/>
    <path clip-path="url(#paacc7401b1)" d="M 148.788661 100.321699 
L 161.704463 114.760184 
L 169.23642 99.809254 
L 156.362078 84.730502 
z
" style="fill:#d1493f;"/>
    <path clip-path="url(#paacc7401b1)" d="M 161.704463 114.760184 
L 174.615277 128.080479 
L 182.102037 113.690289 
L 169.23642 99.809254 
z
" style="fill:#ea7b60;"/>
    <path clip-path="url(#paacc7401b1)" d="M 174.615277 128.080479 
L 187.537884 140.444496 
L 194.976177 126.54734 
L 182.102037 113.690289 
z
" style="fill:#f5a081;"/>
    <path clip-path="url(#paacc7401b1)" d="M 233.782786 160.297605 
L 246.814492 170.279962 
L 253.959933 157.972003 
L 240.988509 147.68548 
z
" style="fill:#e1dad6;"/>
    <path clip-path="url(#paacc7401b1)" d="M 187.537884 140.444496 
L 200.486312 151.98637 
L 207.873228 138.524183 
L 194.976177 126.54734 
z
" style="fill:#f7bca1;"/>
    <path clip-path="url(#paacc7401b1)" d="M 200.486312 151.98637 
L 213.472407 162.818052 
L 220.805323 149.740711 
L 207.873228 138.524183 
z
" style="fill:#efcebd;"/>
    <path clip-path="url(#paacc7401b1)" d="M 246.814492 170.279962 
L 259.90814 179.760144 
L 266.991425 167.722848 
L 253.959933 157.972003 
z
" style="fill:#d2dbe8;"/>
    <path clip-path="url(#paacc7401b1)" d="M 141.160007 116.026608 
L 154.113542 129.82816 
L 161.704463 114.760184 
L 148.788661 100.321699 
z
" style="fill:#e8765c;"/>
    <path clip-path="url(#paacc7401b1)" d="M 154.113542 129.82816 
L 167.066278 142.590298 
L 174.615277 128.080479 
L 161.704463 114.760184 
z
" style="fill:#f59d7e;"/>
    <path clip-path="url(#paacc7401b1)" d="M 213.472407 162.818052 
L 226.50627 173.033638 
L 233.782786 160.297605 
L 220.805323 149.740711 
z
" style="fill:#e1dad6;"/>
    <path clip-path="url(#paacc7401b1)" d="M 167.066278 142.590298 
L 180.034473 154.463317 
L 187.537884 140.444496 
L 174.615277 128.080479 
z
" style="fill:#f7ba9f;"/>
    <path clip-path="url(#paacc7401b1)" d="M 259.90814 179.760144 
L 273.07047 188.800033 
L 280.089813 177.003854 
L 266.991425 167.722848 
z
" style="fill:#c3d5f4;"/>
    <path clip-path="url(#paacc7401b1)" d="M 180.034473 154.463317 
L 193.031743 165.57185 
L 200.486312 151.98637 
L 187.537884 140.444496 
z
" style="fill:#efcebd;"/>
    <path clip-path="url(#paacc7401b1)" d="M 226.50627 173.033638 
L 239.5966 182.712718 
L 246.814492 170.279962 
L 233.782786 160.297605 
z
" style="fill:#d2dbe8;"/>
    <path clip-path="url(#paacc7401b1)" d="M 193.031743 165.57185 
L 206.069609 176.02002 
L 213.472407 162.818052 
L 200.486312 151.98637 
z
" style="fill:#e1dad6;"/>
    <path clip-path="url(#paacc7401b1)" d="M 133.475511 131.846479 
L 146.46296 145.01456 
L 154.113542 129.82816 
L 141.160007 116.026608 
z
" style="fill:#f59c7d;"/>
    <path clip-path="url(#paacc7401b1)" d="M 239.5966 182.712718 
L 252.750957 191.923023 
L 259.90814 179.760144 
L 246.814492 170.279962 
z
" style="fill:#c1d4f4;"/>
    <path clip-path="url(#paacc7401b1)" d="M 146.46296 145.01456 
L 159.454259 157.221246 
L 167.066278 142.590298 
L 154.113542 129.82816 
z
" style="fill:#f7b99e;"/>
    <path clip-path="url(#paacc7401b1)" d="M 206.069609 176.02002 
L 219.157914 185.895413 
L 226.50627 173.033638 
L 213.472407 162.818052 
z
" style="fill:#d2dbe8;"/>
    <path clip-path="url(#paacc7401b1)" d="M 159.454259 157.221246 
L 172.465082 168.605408 
L 180.034473 154.463317 
L 167.066278 142.590298 
z
" style="fill:#efcebd;"/>
    <path clip-path="url(#paacc7401b1)" d="M 252.750957 191.923023 
L 265.975971 200.722512 
L 273.07047 188.800033 
L 259.90814 179.760144 
z
" style="fill:#b2ccfb;"/>
    <path clip-path="url(#paacc7401b1)" d="M 172.465082 168.605408 
L 185.508586 179.282327 
L 193.031743 165.57185 
L 180.034473 154.463317 
z
" style="fill:#e1dad6;"/>
    <path clip-path="url(#paacc7401b1)" d="M 219.157914 185.895413 
L 232.30515 195.272178 
L 239.5966 182.712718 
L 226.50627 173.033638 
z
" style="fill:#c0d4f5;"/>
    <path clip-path="url(#paacc7401b1)" d="M 125.734558 147.782578 
L 138.752013 160.320786 
L 146.46296 145.01456 
L 133.475511 131.846479 
z
" style="fill:#f7b99e;"/>
    <path clip-path="url(#paacc7401b1)" d="M 185.508586 179.282327 
L 198.595925 189.348404 
L 206.069609 176.02002 
L 193.031743 165.57185 
z
" style="fill:#d1dae9;"/>
    <path clip-path="url(#paacc7401b1)" d="M 138.752013 160.320786 
L 151.778428 171.974845 
L 159.454259 157.221246 
L 146.46296 145.01456 
z
" style="fill:#efcebd;"/>
    <path clip-path="url(#paacc7401b1)" d="M 232.30515 195.272178 
L 245.518713 204.21346 
L 252.750957 191.923023 
L 239.5966 182.712718 
z
" style="fill:#afcafc;"/>
    <path clip-path="url(#paacc7401b1)" d="M 151.778428 171.974845 
L 164.828839 182.872401 
L 172.465082 168.605408 
L 159.454259 157.221246 
z
" style="fill:#dfdbd9;"/>
    <path clip-path="url(#paacc7401b1)" d="M 198.595925 189.348404 
L 211.736647 198.884802 
L 219.157914 185.895413 
L 206.069609 176.02002 
z
" style="fill:#bfd3f6;"/>
    <path clip-path="url(#paacc7401b1)" d="M 164.828839 182.872401 
L 177.915892 193.119532 
L 185.508586 179.282327 
L 172.465082 168.605408 
z
" style="fill:#cedaeb;"/>
    <path clip-path="url(#paacc7401b1)" d="M 117.936522 163.836191 
L 130.979983 175.748263 
L 138.752013 160.320786 
L 125.734558 147.782578 
z
" style="fill:#eed0c0;"/>
    <path clip-path="url(#paacc7401b1)" d="M 245.518713 204.21346 
L 258.805103 212.773332 
L 265.975971 200.722512 
L 252.750957 191.923023 
z
" style="fill:#a1c0ff;"/>
    <path clip-path="url(#paacc7401b1)" d="M 211.736647 198.884802 
L 224.93901 207.960289 
L 232.30515 195.272178 
L 219.157914 185.895413 
z
" style="fill:#aec9fc;"/>
    <path clip-path="url(#paacc7401b1)" d="M 130.979983 175.748263 
L 144.03798 186.852644 
L 151.778428 171.974845 
L 138.752013 160.320786 
z
" style="fill:#dddcdc;"/>
    <path clip-path="url(#paacc7401b1)" d="M 177.915892 193.119532 
L 191.050331 202.805028 
L 198.595925 189.348404 
L 185.508586 179.282327 
z
" style="fill:#bcd2f7;"/>
    <path clip-path="url(#paacc7401b1)" d="M 144.03798 186.852644 
L 157.124854 197.265959 
L 164.828839 182.872401 
L 151.778428 171.974845 
z
" style="fill:#cbd8ee;"/>
    <path clip-path="url(#paacc7401b1)" d="M 224.93901 207.960289 
L 238.21022 216.633472 
L 245.518713 204.21346 
L 232.30515 195.272178 
z
" style="fill:#9ebeff;"/>
    <path clip-path="url(#paacc7401b1)" d="M 191.050331 202.805028 
L 204.24138 212.003714 
L 211.736647 198.884802 
L 198.595925 189.348404 
z
" style="fill:#aac7fd;"/>
    <path clip-path="url(#paacc7401b1)" d="M 110.08077 180.008622 
L 123.14614 191.298436 
L 130.979983 175.748263 
L 117.936522 163.836191 
z
" style="fill:#dadce0;"/>
    <path clip-path="url(#paacc7401b1)" d="M 157.124854 197.265959 
L 170.25269 207.085231 
L 177.915892 193.119532 
L 164.828839 182.872401 
z
" style="fill:#b9d0f9;"/>
    <path clip-path="url(#paacc7401b1)" d="M 123.14614 191.298436 
L 136.232096 201.856218 
L 144.03798 186.852644 
L 130.979983 175.748263 
z
" style="fill:#c7d7f0;"/>
    <path clip-path="url(#paacc7401b1)" d="M 238.21022 216.633472 
L 251.556627 224.954575 
L 258.805103 212.773332 
L 245.518713 204.21346 
z
" style="fill:#8fb1fe;"/>
    <path clip-path="url(#paacc7401b1)" d="M 204.24138 212.003714 
L 217.497028 220.779038 
L 224.93901 207.960289 
L 211.736647 198.884802 
z
" style="fill:#9abbff;"/>
    <path clip-path="url(#paacc7401b1)" d="M 170.25269 207.085231 
L 183.431786 216.391754 
L 191.050331 202.805028 
L 177.915892 193.119532 
z
" style="fill:#a6c4fe;"/>
    <path clip-path="url(#paacc7401b1)" d="M 136.232096 201.856218 
L 149.35222 211.787774 
L 157.124854 197.265959 
L 144.03798 186.852644 
z
" style="fill:#b5cdfa;"/>
    <path clip-path="url(#paacc7401b1)" d="M 102.166658 196.301195 
L 115.249746 206.972775 
L 123.14614 191.298436 
L 110.08077 180.008622 
z
" style="fill:#c3d5f4;"/>
    <path clip-path="url(#paacc7401b1)" d="M 217.497028 220.779038 
L 230.824268 229.185119 
L 238.21022 216.633472 
L 224.93901 207.960289 
z
" style="fill:#8badfd;"/>
    <path clip-path="url(#paacc7401b1)" d="M 183.431786 216.391754 
L 196.671 225.254096 
L 204.24138 212.003714 
L 191.050331 202.805028 
z
" style="fill:#96b7ff;"/>
    <path clip-path="url(#paacc7401b1)" d="M 149.35222 211.787774 
L 162.517995 221.181223 
L 170.25269 207.085231 
L 157.124854 197.265959 
z
" style="fill:#a2c1ff;"/>
    <path clip-path="url(#paacc7401b1)" d="M 115.249746 206.972775 
L 128.359941 216.987168 
L 136.232096 201.856218 
L 123.14614 191.298436 
z
" style="fill:#aec9fc;"/>
    <path clip-path="url(#paacc7401b1)" d="M 230.824268 229.185119 
L 244.229275 237.26837 
L 251.556627 224.954575 
L 238.21022 216.633472 
z
" style="fill:#7da0f9;"/>
    <path clip-path="url(#paacc7401b1)" d="M 196.671 225.254096 
L 209.978027 233.730453 
L 217.497028 220.779038 
L 204.24138 212.003714 
z
" style="fill:#86a9fc;"/>
    <path clip-path="url(#paacc7401b1)" d="M 162.517995 221.181223 
L 175.739226 230.110476 
L 183.431786 216.391754 
L 170.25269 207.085231 
z
" style="fill:#90b2fe;"/>
    <path clip-path="url(#paacc7401b1)" d="M 128.359941 216.987168 
L 141.510018 226.439566 
L 149.35222 211.787774 
L 136.232096 201.856218 
z
" style="fill:#9bbcff;"/>
    <path clip-path="url(#paacc7401b1)" d="M 94.193535 212.715255 
L 107.290047 222.772773 
L 115.249746 206.972775 
L 102.166658 196.301195 
z
" style="fill:#a6c4fe;"/>
    <path clip-path="url(#paacc7401b1)" d="M 107.290047 222.772773 
L 120.420669 232.247124 
L 128.359941 216.987168 
L 115.249746 206.972775 
z
" style="fill:#93b5fe;"/>
    <path clip-path="url(#paacc7401b1)" d="M 141.510018 226.439566 
L 154.710802 235.409339 
L 162.517995 221.181223 
L 149.35222 211.787774 
z
" style="fill:#89acfd;"/>
    <path clip-path="url(#paacc7401b1)" d="M 175.739226 230.110476 
L 189.024372 238.637933 
L 196.671 225.254096 
L 183.431786 216.391754 
z
" style="fill:#80a3fa;"/>
    <path clip-path="url(#paacc7401b1)" d="M 209.978027 233.730453 
L 223.359618 241.870505 
L 230.824268 229.185119 
L 217.497028 220.779038 
z
" style="fill:#779af7;"/>
    <path clip-path="url(#paacc7401b1)" d="M 120.420669 232.247124 
L 133.597308 241.22309 
L 141.510018 226.439566 
L 128.359941 216.987168 
z
" style="fill:#81a4fb;"/>
    <path clip-path="url(#paacc7401b1)" d="M 154.710802 235.409339 
L 167.971567 243.963127 
L 175.739226 230.110476 
L 162.517995 221.181223 
z
" style="fill:#799cf8;"/>
    <path clip-path="url(#paacc7401b1)" d="M 189.024372 238.637933 
L 202.380803 246.816604 
L 209.978027 233.730453 
L 196.671 225.254096 
z
" style="fill:#7295f4;"/>
    <path clip-path="url(#paacc7401b1)" d="M 223.359618 241.870505 
L 236.821753 249.716892 
L 244.229275 237.26837 
L 230.824268 229.185119 
z
" style="fill:#6b8df0;"/>
    <path clip-path="url(#paacc7401b1)" d="M 133.597308 241.22309 
L 146.830085 249.771445 
L 154.710802 235.409339 
L 141.510018 226.439566 
z
" style="fill:#7093f3;"/>
    <path clip-path="url(#paacc7401b1)" d="M 167.971567 243.963127 
L 181.300338 252.157253 
L 189.024372 238.637933 
L 175.739226 230.110476 
z
" style="fill:#6b8df0;"/>
    <path clip-path="url(#paacc7401b1)" d="M 202.380803 246.816604 
L 215.815005 254.69178 
L 223.359618 241.870505 
L 209.978027 233.730453 
z
" style="fill:#6485ec;"/>
    <path clip-path="url(#paacc7401b1)" d="M 146.830085 249.771445 
L 160.127704 257.951679 
L 167.971567 243.963127 
L 154.710802 235.409339 
z
" style="fill:#6384eb;"/>
    <path clip-path="url(#paacc7401b1)" d="M 181.300338 252.157253 
L 194.704131 260.039605 
L 202.380803 246.816604 
L 189.024372 238.637933 
z
" style="fill:#5e7de7;"/>
    <path clip-path="url(#paacc7401b1)" d="M 215.815005 254.69178 
L 229.332739 262.302366 
L 236.821753 249.716892 
L 223.359618 241.870505 
z
" style="fill:#5a78e4;"/>
    <path clip-path="url(#paacc7401b1)" d="M 160.127704 257.951679 
L 173.497718 265.814122 
L 181.300338 252.157253 
L 167.971567 243.963127 
z
" style="fill:#5673e0;"/>
    <path clip-path="url(#paacc7401b1)" d="M 194.704131 260.039605 
L 208.189138 267.651138 
L 215.815005 254.69178 
L 202.380803 246.816604 
z
" style="fill:#5470de;"/>
    <path clip-path="url(#paacc7401b1)" d="M 173.497718 265.814122 
L 186.946757 273.401614 
L 194.704131 260.039605 
L 181.300338 252.157253 
z
" style="fill:#4c66d6;"/>
    <path clip-path="url(#paacc7401b1)" d="M 208.189138 267.651138 
L 221.760879 275.027063 
L 229.332739 262.302366 
L 215.815005 254.69178 
z
" style="fill:#4a63d3;"/>
    <path clip-path="url(#paacc7401b1)" d="M 186.946757 273.401614 
L 200.480696 280.750822 
L 208.189138 267.651138 
L 194.704131 260.039605 
z
" style="fill:#4358cb;"/>
    <path clip-path="url(#paacc7401b1)" d="M 200.480696 280.750822 
L 214.104791 287.893306 
L 221.760879 275.027063 
L 208.189138 267.651138 
z
" style="fill:#3b4cc0;"/>
   </g>
  </g>
 </g>
 <defs>
  <clipPath id="paacc7401b1">
   <rect height="271.8" width="279" x="45" y="43.2"/>
  </clipPath>
 </defs>
</svg>
