<?xml version="1.0" encoding="utf-8" standalone="no"?>
<!DOCTYPE svg PUBLIC "-//W3C//DTD SVG 1.1//EN"
  "http://www.w3.org/Graphics/SVG/1.1/DTD/svg11.dtd">
<!-- Created with matplotlib (https://matplotlib.org/) -->
<svg height="180pt" version="1.1" viewBox="0 0 540 180" width="540pt" xmlns="http://www.w3.org/2000/svg" xmlns:xlink="http://www.w3.org/1999/xlink">
 <metadata>
  <rdf:RDF xmlns:cc="http://creativecommons.org/ns#" xmlns:dc="http://purl.org/dc/elements/1.1/" xmlns:rdf="http://www.w3.org/1999/02/22-rdf-syntax-ns#">
   <cc:Work>
    <dc:type rdf:resource="http://purl.org/dc/dcmitype/StillImage"/>
    <dc:date>2021-01-30T21:31:08.304186</dc:date>
    <dc:format>image/svg+xml</dc:format>
    <dc:creator>
     <cc:Agent>
      <dc:title>Matplotlib v3.3.3, https://matplotlib.org/</dc:title>
     </cc:Agent>
    </dc:creator>
   </cc:Work>
  </rdf:RDF>
 </metadata>
 <defs>
  <style type="text/css">*{stroke-linecap:butt;stroke-linejoin:round;}</style>
 </defs>
 <g id="figure_1">
  <g id="patch_1">
   <path d="M 0 180 
L 540 180 
L 540 0 
L 0 0 
z
" style="fill:#ffffff;"/>
  </g>
  <g id="axes_1">
   <g id="PolyCollection_1">
    <path clip-path="url(#p02d1db9b08)" d="M -689.04 453.6 
L -689.04 817.2 
L -665.01551 794.938776 
L -640.99102 772.677551 
L -616.966531 750.416327 
L -592.942041 728.155102 
L -568.917551 705.893878 
L -544.893061 683.632653 
L -520.868571 661.371429 
L -496.844082 639.110204 
L -472.819592 616.84898 
L -448.795102 594.587755 
L -424.770612 572.326531 
L -400.746122 550.065306 
L -376.721633 527.804082 
L -352.697143 505.542857 
L -328.672653 483.281633 
L -304.648163 461.020408 
L -280.623673 438.759184 
L -256.599184 416.497959 
L -232.574694 394.236735 
L -208.550204 371.97551 
L -184.525714 349.714286 
L -160.501224 327.453061 
L -136.476735 305.191837 
L -112.452245 282.930612 
L -88.427755 260.669388 
L -64.403265 238.408163 
L -40.378776 216.146939 
L -16.354286 193.885714 
L 7.670204 171.62449 
L 31.694694 149.363265 
L 55.719184 127.102041 
L 79.743673 104.840816 
L 103.768163 82.579592 
L 127.792653 60.318367 
L 151.817143 38.057143 
L 175.841633 15.795918 
L 199.866122 -6.465306 
L 223.890612 -28.726531 
L 247.915102 -50.987755 
L 271.939592 -73.24898 
L 295.964082 -95.510204 
L 319.988571 -117.771429 
L 344.013061 -140.032653 
L 368.037551 -162.293878 
L 392.062041 -184.555102 
L 416.086531 -206.816327 
L 440.11102 -229.077551 
L 464.13551 -251.338776 
L 488.16 -273.6 
L 488.16 -637.2 
L 488.16 -637.2 
L 464.13551 -614.938776 
L 440.11102 -592.677551 
L 416.086531 -570.416327 
L 392.062041 -548.155102 
L 368.037551 -525.893878 
L 344.013061 -503.632653 
L 319.988571 -481.371429 
L 295.964082 -459.110204 
L 271.939592 -436.84898 
L 247.915102 -414.587755 
L 223.890612 -392.326531 
L 199.866122 -370.065306 
L 175.841633 -347.804082 
L 151.817143 -325.542857 
L 127.792653 -303.281633 
L 103.768163 -281.020408 
L 79.743673 -258.759184 
L 55.719184 -236.497959 
L 31.694694 -214.236735 
L 7.670204 -191.97551 
L -16.354286 -169.714286 
L -40.378776 -147.453061 
L -64.403265 -125.191837 
L -88.427755 -102.930612 
L -112.452245 -80.669388 
L -136.476735 -58.408163 
L -160.501224 -36.146939 
L -184.525714 -13.885714 
L -208.550204 8.37551 
L -232.574694 30.636735 
L -256.599184 52.897959 
L -280.623673 75.159184 
L -304.648163 97.420408 
L -328.672653 119.681633 
L -352.697143 141.942857 
L -376.721633 164.204082 
L -400.746122 186.465306 
L -424.770612 208.726531 
L -448.795102 230.987755 
L -472.819592 253.24898 
L -496.844082 275.510204 
L -520.868571 297.771429 
L -544.893061 320.032653 
L -568.917551 342.293878 
L -592.942041 364.555102 
L -616.966531 386.816327 
L -640.99102 409.077551 
L -665.01551 431.338776 
L -689.04 453.6 
z
" style="fill:#f0f8ff;stroke:#f0f8ff;"/>
   </g>
   <g id="PolyCollection_2">
    <path clip-path="url(#p02d1db9b08)" d="M -689.04 1180.8 
L -689.04 817.2 
L -665.01551 794.938776 
L -640.99102 772.677551 
L -616.966531 750.416327 
L -592.942041 728.155102 
L -568.917551 705.893878 
L -544.893061 683.632653 
L -520.868571 661.371429 
L -496.844082 639.110204 
L -472.819592 616.84898 
L -448.795102 594.587755 
L -424.770612 572.326531 
L -400.746122 550.065306 
L -376.721633 527.804082 
L -352.697143 505.542857 
L -328.672653 483.281633 
L -304.648163 461.020408 
L -280.623673 438.759184 
L -256.599184 416.497959 
L -232.574694 394.236735 
L -208.550204 371.97551 
L -184.525714 349.714286 
L -160.501224 327.453061 
L -136.476735 305.191837 
L -112.452245 282.930612 
L -88.427755 260.669388 
L -64.403265 238.408163 
L -40.378776 216.146939 
L -16.354286 193.885714 
L 7.670204 171.62449 
L 31.694694 149.363265 
L 55.719184 127.102041 
L 79.743673 104.840816 
L 103.768163 82.579592 
L 127.792653 60.318367 
L 151.817143 38.057143 
L 175.841633 15.795918 
L 199.866122 -6.465306 
L 223.890612 -28.726531 
L 247.915102 -50.987755 
L 271.939592 -73.24898 
L 295.964082 -95.510204 
L 319.988571 -117.771429 
L 344.013061 -140.032653 
L 368.037551 -162.293878 
L 392.062041 -184.555102 
L 416.086531 -206.816327 
L 440.11102 -229.077551 
L 464.13551 -251.338776 
L 488.16 -273.6 
L 488.16 90 
L 488.16 90 
L 464.13551 112.261224 
L 440.11102 134.522449 
L 416.086531 156.783673 
L 392.062041 179.044898 
L 368.037551 201.306122 
L 344.013061 223.567347 
L 319.988571 245.828571 
L 295.964082 268.089796 
L 271.939592 290.35102 
L 247.915102 312.612245 
L 223.890612 334.873469 
L 199.866122 357.134694 
L 175.841633 379.395918 
L 151.817143 401.657143 
L 127.792653 423.918367 
L 103.768163 446.179592 
L 79.743673 468.440816 
L 55.719184 490.702041 
L 31.694694 512.963265 
L 7.670204 535.22449 
L -16.354286 557.485714 
L -40.378776 579.746939 
L -64.403265 602.008163 
L -88.427755 624.269388 
L -112.452245 646.530612 
L -136.476735 668.791837 
L -160.501224 691.053061 
L -184.525714 713.314286 
L -208.550204 735.57551 
L -232.574694 757.836735 
L -256.599184 780.097959 
L -280.623673 802.359184 
L -304.648163 824.620408 
L -328.672653 846.881633 
L -352.697143 869.142857 
L -376.721633 891.404082 
L -400.746122 913.665306 
L -424.770612 935.926531 
L -448.795102 958.187755 
L -472.819592 980.44898 
L -496.844082 1002.710204 
L -520.868571 1024.971429 
L -544.893061 1047.232653 
L -568.917551 1069.493878 
L -592.942041 1091.755102 
L -616.966531 1114.016327 
L -640.99102 1136.277551 
L -665.01551 1158.538776 
L -689.04 1180.8 
z
" style="fill:#ffe6e6;stroke:#ffe6e6;"/>
   </g>
   <g id="patch_2">
    <path clip-path="url(#p02d1db9b08)" d="M 54.438985 51.71172 
L 57.213672 52.99724 
L 56.533873 53.627145 
L 95.773873 89.987145 
L 95.746127 90.012855 
L 56.506127 53.652855 
L 55.826328 54.28276 
z
" style="fill:#333333;stroke:#333333;stroke-linejoin:miter;stroke-width:2;"/>
   </g>
   <g id="line2d_1">
    <path clip-path="url(#p02d1db9b08)" d="M 17.28 162.72 
L 20.483265 159.751837 
L 23.686531 156.783673 
L 26.889796 153.81551 
L 30.093061 150.847347 
L 33.296327 147.879184 
L 36.499592 144.91102 
L 39.702857 141.942857 
L 42.906122 138.974694 
L 46.109388 136.006531 
L 49.312653 133.038367 
L 52.515918 130.070204 
L 55.719184 127.102041 
L 58.922449 124.133878 
L 62.125714 121.165714 
L 65.32898 118.197551 
L 68.532245 115.229388 
L 71.73551 112.261224 
L 74.938776 109.293061 
L 78.142041 106.324898 
L 81.345306 103.356735 
L 84.548571 100.388571 
L 87.751837 97.420408 
L 90.955102 94.452245 
L 94.158367 91.484082 
L 97.361633 88.515918 
L 100.564898 85.547755 
L 103.768163 82.579592 
L 106.971429 79.611429 
L 110.174694 76.643265 
L 113.377959 73.675102 
L 116.581224 70.706939 
L 119.78449 67.738776 
L 122.987755 64.770612 
L 126.19102 61.802449 
L 129.394286 58.834286 
L 132.597551 55.866122 
L 135.800816 52.897959 
L 139.004082 49.929796 
L 142.207347 46.961633 
L 145.410612 43.993469 
L 148.613878 41.025306 
L 151.817143 38.057143 
L 155.020408 35.08898 
L 158.223673 32.120816 
L 161.426939 29.152653 
L 164.630204 26.18449 
L 167.833469 23.216327 
L 171.036735 20.248163 
L 174.24 17.28 
" style="fill:none;stroke:#000000;stroke-dasharray:5.55,2.4;stroke-dashoffset:0;stroke-width:1.5;"/>
   </g>
   <g id="line2d_2">
    <path clip-path="url(#p02d1db9b08)" d="M 95.76 35.46 
" style="fill:none;stroke:#0000ff;stroke-linecap:square;stroke-width:1.5;"/>
    <defs>
     <path d="M 0.808843 0.3329 
L 5.451235 0.3329 
C 5.685306 0.3329 6 0.3329 6 0 
C 6 -0.335501 5.685306 -0.335501 5.451235 -0.335501 
L 0.808843 -0.335501 
L 0.808843 -5.024707 
C 0.808843 -5.258778 0.808843 -5.576073 0.475943 -5.576073 
C 0.143043 -5.576073 0.143043 -5.258778 0.143043 -5.024707 
L 0.143043 -0.335501 
L -4.517555 -0.335501 
C -4.751625 -0.335501 -5.068921 -0.335501 -5.068921 0 
C -5.068921 0.3329 -4.751625 0.3329 -4.517555 0.3329 
L 0.143043 0.3329 
L 0.143043 5.022107 
C 0.143043 5.256177 0.143043 5.576073 0.475943 5.576073 
C 0.808843 5.576073 0.808843 5.256177 0.808843 5.022107 
z
" id="m80ddd79748" style="stroke:#0000ff;"/>
    </defs>
    <g clip-path="url(#p02d1db9b08)">
     <use style="fill:#0000ff;stroke:#0000ff;" x="95.76" xlink:href="#m80ddd79748" y="35.46"/>
    </g>
   </g>
   <g id="line2d_3">
    <path clip-path="url(#p02d1db9b08)" d="M 36.9 108.18 
" style="fill:none;stroke:#0000ff;stroke-linecap:square;stroke-width:1.5;"/>
    <g clip-path="url(#p02d1db9b08)">
     <use style="fill:#0000ff;stroke:#0000ff;" x="36.9" xlink:href="#m80ddd79748" y="108.18"/>
    </g>
   </g>
   <g id="line2d_4">
    <path clip-path="url(#p02d1db9b08)" d="M 135 126.36 
" style="fill:none;stroke:#ff0000;stroke-linecap:square;stroke-width:1.5;"/>
    <defs>
     <path d="M 5.394867 -1.642503 
C 5.686628 -1.642503 6 -1.642503 6 -1.988294 
C 6 -2.334084 5.686628 -2.334084 5.394867 -2.334084 
L -3.960378 -2.334084 
C -4.25484 -2.334084 -4.565511 -2.334084 -4.565511 -1.988294 
C -4.565511 -1.642503 -4.25484 -1.642503 -3.960378 -1.642503 
z
" id="ma620cef382" style="stroke:#ff0000;"/>
    </defs>
    <g clip-path="url(#p02d1db9b08)">
     <use style="fill:#ff0000;stroke:#ff0000;" x="135" xlink:href="#ma620cef382" y="126.36"/>
    </g>
   </g>
   <g id="line2d_5">
    <path clip-path="url(#p02d1db9b08)" d="M 107.532 68.184 
" style="fill:none;stroke:#ff0000;stroke-linecap:square;stroke-width:1.5;"/>
    <g clip-path="url(#p02d1db9b08)">
     <use style="fill:#ff0000;stroke:#ff0000;" x="107.532" xlink:href="#ma620cef382" y="68.184"/>
    </g>
   </g>
   <g id="text_1">
    <!-- $w$ -->
    <g transform="translate(56.52 50.004)scale(0.16 -0.16)">
     <defs>
      <path d="M 55.40625 42.203125 
L 56.5 40.328125 
C 57.40625 40.921875 58.296875 41.21875 59.203125 41.21875 
C 61.90625 41.21875 63.5 38.921875 63.5 34.953125 
C 63.5 20.5 53.796875 3.984375 45.296875 3.984375 
C 42.40625 3.984375 40.296875 7.9375 40.296875 13.421875 
C 40.296875 18.09375 41.203125 24.640625 42.40625 28.921875 
L 47.59375 47.203125 
L 46.90625 48 
L 39.5 45.8125 
L 36.59375 31 
C 35.40625 24.84375 34 20.875 31.09375 15.5 
C 27.09375 8.046875 23.296875 3.984375 20.296875 3.984375 
C 16.796875 3.984375 14.5 7.84375 14.5 13.625 
C 14.5 25.4375 18.59375 35.078125 28.5 46.203125 
L 27.5 48 
C 25.5 47.25 24.203125 47 21.40625 47 
C 18.59375 47 14.40625 47 11.5 47.359375 
L 10.296875 47.484375 
C 9.703125 47.59375 9.203125 47.59375 9.09375 47.59375 
C 7.90625 47.59375 7 47.390625 5.90625 46.890625 
C 4.5 44.203125 3.40625 40.625 2.09375 35.140625 
L 4.296875 35.140625 
L 6 39.328125 
C 6.703125 41.015625 8.703125 42.109375 11.09375 42.109375 
C 11.59375 42.109375 12.5 42.109375 13.796875 42.109375 
C 14.59375 42.109375 15.40625 42.109375 16.703125 42.109375 
C 18.796875 42.109375 20.09375 42.15625 22.59375 42.3125 
L 22.296875 41.921875 
C 21.703125 41.125 21.296875 40.625 19.59375 38.734375 
C 10.59375 28.28125 7.203125 21.109375 7.203125 12.640625 
C 7.203125 4.46875 10.703125 -1 16 -1 
C 22.40625 -1 27.59375 4.46875 35 18.71875 
C 34.09375 14.328125 33.796875 11.84375 33.796875 9.546875 
C 33.796875 3.28125 36.703125 -1 41.203125 -1 
C 49.296875 -1 59.796875 9.046875 66 22.65625 
C 68.203125 27.625 69.90625 34.28125 69.90625 38.25 
C 69.90625 43.9375 67.296875 48 63.703125 48 
C 62.40625 48 61.203125 47.59375 60.40625 46.8125 
z
" id="URW_Palladio_L_Italic-119"/>
     </defs>
     <use transform="scale(0.996264)" xlink:href="#URW_Palladio_L_Italic-119"/>
    </g>
   </g>
  </g>
  <g id="axes_2">
   <g id="PolyCollection_3">
    <path clip-path="url(#p7836563297)" d="M -514.8 453.6 
L -514.8 817.2 
L -490.77551 794.938776 
L -466.75102 772.677551 
L -442.726531 750.416327 
L -418.702041 728.155102 
L -394.677551 705.893878 
L -370.653061 683.632653 
L -346.628571 661.371429 
L -322.604082 639.110204 
L -298.579592 616.84898 
L -274.555102 594.587755 
L -250.530612 572.326531 
L -226.506122 550.065306 
L -202.481633 527.804082 
L -178.457143 505.542857 
L -154.432653 483.281633 
L -130.408163 461.020408 
L -106.383673 438.759184 
L -82.359184 416.497959 
L -58.334694 394.236735 
L -34.310204 371.97551 
L -10.285714 349.714286 
L 13.738776 327.453061 
L 37.763265 305.191837 
L 61.787755 282.930612 
L 85.812245 260.669388 
L 109.836735 238.408163 
L 133.861224 216.146939 
L 157.885714 193.885714 
L 181.910204 171.62449 
L 205.934694 149.363265 
L 229.959184 127.102041 
L 253.983673 104.840816 
L 278.008163 82.579592 
L 302.032653 60.318367 
L 326.057143 38.057143 
L 350.081633 15.795918 
L 374.106122 -6.465306 
L 398.130612 -28.726531 
L 422.155102 -50.987755 
L 446.179592 -73.24898 
L 470.204082 -95.510204 
L 494.228571 -117.771429 
L 518.253061 -140.032653 
L 542.277551 -162.293878 
L 566.302041 -184.555102 
L 590.326531 -206.816327 
L 614.35102 -229.077551 
L 638.37551 -251.338776 
L 662.4 -273.6 
L 662.4 -637.2 
L 662.4 -637.2 
L 638.37551 -614.938776 
L 614.35102 -592.677551 
L 590.326531 -570.416327 
L 566.302041 -548.155102 
L 542.277551 -525.893878 
L 518.253061 -503.632653 
L 494.228571 -481.371429 
L 470.204082 -459.110204 
L 446.179592 -436.84898 
L 422.155102 -414.587755 
L 398.130612 -392.326531 
L 374.106122 -370.065306 
L 350.081633 -347.804082 
L 326.057143 -325.542857 
L 302.032653 -303.281633 
L 278.008163 -281.020408 
L 253.983673 -258.759184 
L 229.959184 -236.497959 
L 205.934694 -214.236735 
L 181.910204 -191.97551 
L 157.885714 -169.714286 
L 133.861224 -147.453061 
L 109.836735 -125.191837 
L 85.812245 -102.930612 
L 61.787755 -80.669388 
L 37.763265 -58.408163 
L 13.738776 -36.146939 
L -10.285714 -13.885714 
L -34.310204 8.37551 
L -58.334694 30.636735 
L -82.359184 52.897959 
L -106.383673 75.159184 
L -130.408163 97.420408 
L -154.432653 119.681633 
L -178.457143 141.942857 
L -202.481633 164.204082 
L -226.506122 186.465306 
L -250.530612 208.726531 
L -274.555102 230.987755 
L -298.579592 253.24898 
L -322.604082 275.510204 
L -346.628571 297.771429 
L -370.653061 320.032653 
L -394.677551 342.293878 
L -418.702041 364.555102 
L -442.726531 386.816327 
L -466.75102 409.077551 
L -490.77551 431.338776 
L -514.8 453.6 
z
" style="fill:#f0f8ff;stroke:#f0f8ff;"/>
   </g>
   <g id="PolyCollection_4">
    <path clip-path="url(#p7836563297)" d="M -514.8 1180.8 
L -514.8 817.2 
L -490.77551 794.938776 
L -466.75102 772.677551 
L -442.726531 750.416327 
L -418.702041 728.155102 
L -394.677551 705.893878 
L -370.653061 683.632653 
L -346.628571 661.371429 
L -322.604082 639.110204 
L -298.579592 616.84898 
L -274.555102 594.587755 
L -250.530612 572.326531 
L -226.506122 550.065306 
L -202.481633 527.804082 
L -178.457143 505.542857 
L -154.432653 483.281633 
L -130.408163 461.020408 
L -106.383673 438.759184 
L -82.359184 416.497959 
L -58.334694 394.236735 
L -34.310204 371.97551 
L -10.285714 349.714286 
L 13.738776 327.453061 
L 37.763265 305.191837 
L 61.787755 282.930612 
L 85.812245 260.669388 
L 109.836735 238.408163 
L 133.861224 216.146939 
L 157.885714 193.885714 
L 181.910204 171.62449 
L 205.934694 149.363265 
L 229.959184 127.102041 
L 253.983673 104.840816 
L 278.008163 82.579592 
L 302.032653 60.318367 
L 326.057143 38.057143 
L 350.081633 15.795918 
L 374.106122 -6.465306 
L 398.130612 -28.726531 
L 422.155102 -50.987755 
L 446.179592 -73.24898 
L 470.204082 -95.510204 
L 494.228571 -117.771429 
L 518.253061 -140.032653 
L 542.277551 -162.293878 
L 566.302041 -184.555102 
L 590.326531 -206.816327 
L 614.35102 -229.077551 
L 638.37551 -251.338776 
L 662.4 -273.6 
L 662.4 90 
L 662.4 90 
L 638.37551 112.261224 
L 614.35102 134.522449 
L 590.326531 156.783673 
L 566.302041 179.044898 
L 542.277551 201.306122 
L 518.253061 223.567347 
L 494.228571 245.828571 
L 470.204082 268.089796 
L 446.179592 290.35102 
L 422.155102 312.612245 
L 398.130612 334.873469 
L 374.106122 357.134694 
L 350.081633 379.395918 
L 326.057143 401.657143 
L 302.032653 423.918367 
L 278.008163 446.179592 
L 253.983673 468.440816 
L 229.959184 490.702041 
L 205.934694 512.963265 
L 181.910204 535.22449 
L 157.885714 557.485714 
L 133.861224 579.746939 
L 109.836735 602.008163 
L 85.812245 624.269388 
L 61.787755 646.530612 
L 37.763265 668.791837 
L 13.738776 691.053061 
L -10.285714 713.314286 
L -34.310204 735.57551 
L -58.334694 757.836735 
L -82.359184 780.097959 
L -106.383673 802.359184 
L -130.408163 824.620408 
L -154.432653 846.881633 
L -178.457143 869.142857 
L -202.481633 891.404082 
L -226.506122 913.665306 
L -250.530612 935.926531 
L -274.555102 958.187755 
L -298.579592 980.44898 
L -322.604082 1002.710204 
L -346.628571 1024.971429 
L -370.653061 1047.232653 
L -394.677551 1069.493878 
L -418.702041 1091.755102 
L -442.726531 1114.016327 
L -466.75102 1136.277551 
L -490.77551 1158.538776 
L -514.8 1180.8 
z
" style="fill:#ffe6e6;stroke:#ffe6e6;"/>
   </g>
   <g id="patch_3">
    <path clip-path="url(#p7836563297)" d="M 283.08815 65.744897 
L 282.649433 68.590517 
L 281.789549 68.19213 
L 270.017549 90.00813 
L 269.982451 89.99187 
L 281.754451 68.17587 
L 280.894567 67.777483 
z
" style="fill:#999999;stroke:#999999;stroke-linejoin:miter;stroke-width:2;"/>
   </g>
   <g id="patch_4">
    <path clip-path="url(#p7836563297)" d="M 217.67185 77.895103 
L 218.110567 75.049483 
L 218.970451 75.44787 
L 230.742451 53.63187 
L 230.777549 53.64813 
L 219.005549 75.46413 
L 219.865433 75.862517 
z
" style="fill:#999999;stroke:#999999;stroke-linejoin:miter;stroke-width:2;"/>
   </g>
   <g id="patch_5">
    <path clip-path="url(#p7836563297)" d="M 228.678985 51.71172 
L 231.453672 52.99724 
L 230.773873 53.627145 
L 270.013873 89.987145 
L 269.986127 90.012855 
L 230.746127 53.652855 
L 230.066328 54.28276 
z
" style="fill:#333333;stroke:#333333;stroke-linejoin:miter;stroke-width:2;"/>
   </g>
   <g id="line2d_6">
    <path clip-path="url(#p7836563297)" d="M 270 35.46 
" style="fill:none;stroke:#0000ff;stroke-linecap:square;stroke-width:1.5;"/>
    <g clip-path="url(#p7836563297)">
     <use style="fill:#0000ff;stroke:#0000ff;" x="270" xlink:href="#m80ddd79748" y="35.46"/>
    </g>
   </g>
   <g id="line2d_7">
    <path clip-path="url(#p7836563297)" d="M 211.14 108.18 
" style="fill:none;stroke:#0000ff;stroke-linecap:square;stroke-width:1.5;"/>
    <g clip-path="url(#p7836563297)">
     <use style="fill:#0000ff;stroke:#0000ff;" x="211.14" xlink:href="#m80ddd79748" y="108.18"/>
    </g>
   </g>
   <g id="line2d_8">
    <path clip-path="url(#p7836563297)" d="M 309.24 126.36 
" style="fill:none;stroke:#ff0000;stroke-linecap:square;stroke-width:1.5;"/>
    <g clip-path="url(#p7836563297)">
     <use style="fill:#ff0000;stroke:#ff0000;" x="309.24" xlink:href="#ma620cef382" y="126.36"/>
    </g>
   </g>
   <g id="line2d_9">
    <path clip-path="url(#p7836563297)" d="M 281.772 68.184 
" style="fill:none;stroke:#ff0000;stroke-linecap:square;stroke-width:1.5;"/>
    <g clip-path="url(#p7836563297)">
     <use style="fill:#ff0000;stroke:#ff0000;" x="281.772" xlink:href="#ma620cef382" y="68.184"/>
    </g>
   </g>
   <g id="line2d_10">
    <path clip-path="url(#p7836563297)" d="M 191.52 162.72 
L 194.723265 159.751837 
L 197.926531 156.783673 
L 201.129796 153.81551 
L 204.333061 150.847347 
L 207.536327 147.879184 
L 210.739592 144.91102 
L 213.942857 141.942857 
L 217.146122 138.974694 
L 220.349388 136.006531 
L 223.552653 133.038367 
L 226.755918 130.070204 
L 229.959184 127.102041 
L 233.162449 124.133878 
L 236.365714 121.165714 
L 239.56898 118.197551 
L 242.772245 115.229388 
L 245.97551 112.261224 
L 249.178776 109.293061 
L 252.382041 106.324898 
L 255.585306 103.356735 
L 258.788571 100.388571 
L 261.991837 97.420408 
L 265.195102 94.452245 
L 268.398367 91.484082 
L 271.601633 88.515918 
L 274.804898 85.547755 
L 278.008163 82.579592 
L 281.211429 79.611429 
L 284.414694 76.643265 
L 287.617959 73.675102 
L 290.821224 70.706939 
L 294.02449 67.738776 
L 297.227755 64.770612 
L 300.43102 61.802449 
L 303.634286 58.834286 
L 306.837551 55.866122 
L 310.040816 52.897959 
L 313.244082 49.929796 
L 316.447347 46.961633 
L 319.650612 43.993469 
L 322.853878 41.025306 
L 326.057143 38.057143 
L 329.260408 35.08898 
L 332.463673 32.120816 
L 335.666939 29.152653 
L 338.870204 26.18449 
L 342.073469 23.216327 
L 345.276735 20.248163 
L 348.48 17.28 
" style="fill:none;stroke:#000000;stroke-dasharray:5.55,2.4;stroke-dashoffset:0;stroke-width:1.5;"/>
   </g>
   <g id="text_2">
    <!-- $x$ -->
    <g transform="translate(268.038 75.456)scale(0.16 -0.16)">
     <defs>
      <path d="M 2.09375 8.84375 
C 2.09375 6.84375 1.90625 5.578125 1.296875 2.390625 
C 1.09375 1.203125 1 0.90625 0.90625 0.203125 
C 2.40625 -0.609375 4 -1 5.203125 -1 
C 8.5 -1 12.40625 1.890625 15.5 6.546875 
L 23.09375 18.1875 
L 24.203125 11.328125 
C 25.5 2.875 27.796875 -1 31.40625 -1 
C 33.59375 -1 36.796875 0.6875 40 3.578125 
L 44.90625 7.953125 
L 44 9.84375 
C 40.40625 6.859375 37.90625 5.375 36.296875 5.375 
C 34.796875 5.375 33.5 6.375 32.5 8.34375 
C 31.59375 10.234375 30.5 13.90625 30 16.796875 
L 28.203125 26.8125 
L 31.703125 31.6875 
C 36.40625 38.140625 39.09375 40.421875 42.203125 40.421875 
C 43.796875 40.421875 45 39.625 45.5 38.140625 
L 46.90625 38.53125 
L 48.40625 47 
C 47.203125 47.703125 46.296875 48 45.40625 48 
C 41.40625 48 37.40625 44.40625 31.203125 35.265625 
L 27.5 29.796875 
L 26.90625 34.5625 
C 25.703125 44.40625 23 48 17.09375 48 
C 14.5 48 12.296875 47.203125 11.40625 45.90625 
L 5.59375 37.640625 
L 7.296875 36.65625 
C 10.296875 40.03125 12.296875 41.421875 14.203125 41.421875 
C 17.5 41.421875 19.703125 37.359375 21.40625 27.609375 
L 22.5 21.453125 
L 18.5 15.265625 
C 14.203125 8.578125 10.796875 5.375 8 5.375 
C 6.5 5.375 5.40625 5.796875 5.203125 6.296875 
L 4.09375 9.140625 
z
" id="URW_Palladio_L_Italic-120"/>
     </defs>
     <use transform="scale(0.996264)" xlink:href="#URW_Palladio_L_Italic-120"/>
    </g>
   </g>
   <g id="text_3">
    <!-- $-x$ -->
    <g transform="translate(199.368 68.184)scale(0.16 -0.16)">
     <defs>
      <path d="M 65.90625 23 
C 67.59375 23 69.40625 23 69.40625 25 
C 69.40625 27 67.59375 27 65.90625 27 
L 11.796875 27 
C 10.09375 27 8.296875 27 8.296875 25 
C 8.296875 23 10.09375 23 11.796875 23 
z
" id="CMSY10-0"/>
     </defs>
     <use transform="scale(1.038107)" xlink:href="#CMSY10-0"/>
     <use transform="translate(84.880672 0)scale(0.996264)" xlink:href="#URW_Palladio_L_Italic-120"/>
    </g>
   </g>
   <g id="text_4">
    <!-- $w$ -->
    <g transform="translate(230.76 50.004)scale(0.16 -0.16)">
     <use transform="scale(0.996264)" xlink:href="#URW_Palladio_L_Italic-119"/>
    </g>
   </g>
  </g>
  <g id="axes_3">
   <g id="PolyCollection_5">
    <path clip-path="url(#p37d4ec2403)" d="M -340.56 2089.8 
L -340.56 2453.4 
L -316.53551 2381.05102 
L -292.51102 2308.702041 
L -268.486531 2236.353061 
L -244.462041 2164.004082 
L -220.437551 2091.655102 
L -196.413061 2019.306122 
L -172.388571 1946.957143 
L -148.364082 1874.608163 
L -124.339592 1802.259184 
L -100.315102 1729.910204 
L -76.290612 1657.561224 
L -52.266122 1585.212245 
L -28.241633 1512.863265 
L -4.217143 1440.514286 
L 19.807347 1368.165306 
L 43.831837 1295.816327 
L 67.856327 1223.467347 
L 91.880816 1151.118367 
L 115.905306 1078.769388 
L 139.929796 1006.420408 
L 163.954286 934.071429 
L 187.978776 861.722449 
L 212.003265 789.373469 
L 236.027755 717.02449 
L 260.052245 644.67551 
L 284.076735 572.326531 
L 308.101224 499.977551 
L 332.125714 427.628571 
L 356.150204 355.279592 
L 380.174694 282.930612 
L 404.199184 210.581633 
L 428.223673 138.232653 
L 452.248163 65.883673 
L 476.272653 -6.465306 
L 500.297143 -78.814286 
L 524.321633 -151.163265 
L 548.346122 -223.512245 
L 572.370612 -295.861224 
L 596.395102 -368.210204 
L 620.419592 -440.559184 
L 644.444082 -512.908163 
L 668.468571 -585.257143 
L 692.493061 -657.606122 
L 716.517551 -729.955102 
L 740.542041 -802.304082 
L 764.566531 -874.653061 
L 788.59102 -947.002041 
L 812.61551 -1019.35102 
L 836.64 -1091.7 
L 836.64 -1455.3 
L 836.64 -1455.3 
L 812.61551 -1382.95102 
L 788.59102 -1310.602041 
L 764.566531 -1238.253061 
L 740.542041 -1165.904082 
L 716.517551 -1093.555102 
L 692.493061 -1021.206122 
L 668.468571 -948.857143 
L 644.444082 -876.508163 
L 620.419592 -804.159184 
L 596.395102 -731.810204 
L 572.370612 -659.461224 
L 548.346122 -587.112245 
L 524.321633 -514.763265 
L 500.297143 -442.414286 
L 476.272653 -370.065306 
L 452.248163 -297.716327 
L 428.223673 -225.367347 
L 404.199184 -153.018367 
L 380.174694 -80.669388 
L 356.150204 -8.320408 
L 332.125714 64.028571 
L 308.101224 136.377551 
L 284.076735 208.726531 
L 260.052245 281.07551 
L 236.027755 353.42449 
L 212.003265 425.773469 
L 187.978776 498.122449 
L 163.954286 570.471429 
L 139.929796 642.820408 
L 115.905306 715.169388 
L 91.880816 787.518367 
L 67.856327 859.867347 
L 43.831837 932.216327 
L 19.807347 1004.565306 
L -4.217143 1076.914286 
L -28.241633 1149.263265 
L -52.266122 1221.612245 
L -76.290612 1293.961224 
L -100.315102 1366.310204 
L -124.339592 1438.659184 
L -148.364082 1511.008163 
L -172.388571 1583.357143 
L -196.413061 1655.706122 
L -220.437551 1728.055102 
L -244.462041 1800.404082 
L -268.486531 1872.753061 
L -292.51102 1945.102041 
L -316.53551 2017.45102 
L -340.56 2089.8 
z
" style="fill:#f0f8ff;stroke:#f0f8ff;"/>
   </g>
   <g id="PolyCollection_6">
    <path clip-path="url(#p37d4ec2403)" d="M -340.56 2817 
L -340.56 2453.4 
L -316.53551 2381.05102 
L -292.51102 2308.702041 
L -268.486531 2236.353061 
L -244.462041 2164.004082 
L -220.437551 2091.655102 
L -196.413061 2019.306122 
L -172.388571 1946.957143 
L -148.364082 1874.608163 
L -124.339592 1802.259184 
L -100.315102 1729.910204 
L -76.290612 1657.561224 
L -52.266122 1585.212245 
L -28.241633 1512.863265 
L -4.217143 1440.514286 
L 19.807347 1368.165306 
L 43.831837 1295.816327 
L 67.856327 1223.467347 
L 91.880816 1151.118367 
L 115.905306 1078.769388 
L 139.929796 1006.420408 
L 163.954286 934.071429 
L 187.978776 861.722449 
L 212.003265 789.373469 
L 236.027755 717.02449 
L 260.052245 644.67551 
L 284.076735 572.326531 
L 308.101224 499.977551 
L 332.125714 427.628571 
L 356.150204 355.279592 
L 380.174694 282.930612 
L 404.199184 210.581633 
L 428.223673 138.232653 
L 452.248163 65.883673 
L 476.272653 -6.465306 
L 500.297143 -78.814286 
L 524.321633 -151.163265 
L 548.346122 -223.512245 
L 572.370612 -295.861224 
L 596.395102 -368.210204 
L 620.419592 -440.559184 
L 644.444082 -512.908163 
L 668.468571 -585.257143 
L 692.493061 -657.606122 
L 716.517551 -729.955102 
L 740.542041 -802.304082 
L 764.566531 -874.653061 
L 788.59102 -947.002041 
L 812.61551 -1019.35102 
L 836.64 -1091.7 
L 836.64 -728.1 
L 836.64 -728.1 
L 812.61551 -655.75102 
L 788.59102 -583.402041 
L 764.566531 -511.053061 
L 740.542041 -438.704082 
L 716.517551 -366.355102 
L 692.493061 -294.006122 
L 668.468571 -221.657143 
L 644.444082 -149.308163 
L 620.419592 -76.959184 
L 596.395102 -4.610204 
L 572.370612 67.738776 
L 548.346122 140.087755 
L 524.321633 212.436735 
L 500.297143 284.785714 
L 476.272653 357.134694 
L 452.248163 429.483673 
L 428.223673 501.832653 
L 404.199184 574.181633 
L 380.174694 646.530612 
L 356.150204 718.879592 
L 332.125714 791.228571 
L 308.101224 863.577551 
L 284.076735 935.926531 
L 260.052245 1008.27551 
L 236.027755 1080.62449 
L 212.003265 1152.973469 
L 187.978776 1225.322449 
L 163.954286 1297.671429 
L 139.929796 1370.020408 
L 115.905306 1442.369388 
L 91.880816 1514.718367 
L 67.856327 1587.067347 
L 43.831837 1659.416327 
L 19.807347 1731.765306 
L -4.217143 1804.114286 
L -28.241633 1876.463265 
L -52.266122 1948.812245 
L -76.290612 2021.161224 
L -100.315102 2093.510204 
L -124.339592 2165.859184 
L -148.364082 2238.208163 
L -172.388571 2310.557143 
L -196.413061 2382.906122 
L -220.437551 2455.255102 
L -244.462041 2527.604082 
L -268.486531 2599.953061 
L -292.51102 2672.302041 
L -316.53551 2744.65102 
L -340.56 2817 
z
" style="fill:#ffe6e6;stroke:#ffe6e6;"/>
   </g>
   <g id="patch_6">
    <path clip-path="url(#p37d4ec2403)" d="M 402.918985 51.71172 
L 405.693672 52.99724 
L 405.013873 53.627145 
L 444.253873 89.987145 
L 444.226127 90.012855 
L 404.986127 53.652855 
L 404.306328 54.28276 
z
" style="fill:#999999;stroke:#999999;stroke-linejoin:miter;stroke-width:2;"/>
   </g>
   <g id="patch_7">
    <path clip-path="url(#p37d4ec2403)" d="M 390.415142 74.654028 
L 393.516498 74.587197 
L 393.23377 75.438624 
L 444.24577 89.982624 
L 444.23423 90.017376 
L 393.22223 75.473376 
L 392.939502 76.324803 
z
" style="fill:#333333;stroke:#333333;stroke-linejoin:miter;stroke-width:2;"/>
   </g>
   <g id="line2d_11">
    <path clip-path="url(#p37d4ec2403)" d="M 444.24 35.46 
" style="fill:none;stroke:#0000ff;stroke-linecap:square;stroke-width:1.5;"/>
    <g clip-path="url(#p37d4ec2403)">
     <use style="fill:#0000ff;stroke:#0000ff;" x="444.24" xlink:href="#m80ddd79748" y="35.46"/>
    </g>
   </g>
   <g id="line2d_12">
    <path clip-path="url(#p37d4ec2403)" d="M 385.38 108.18 
" style="fill:none;stroke:#0000ff;stroke-linecap:square;stroke-width:1.5;"/>
    <g clip-path="url(#p37d4ec2403)">
     <use style="fill:#0000ff;stroke:#0000ff;" x="385.38" xlink:href="#m80ddd79748" y="108.18"/>
    </g>
   </g>
   <g id="line2d_13">
    <path clip-path="url(#p37d4ec2403)" d="M 483.48 126.36 
" style="fill:none;stroke:#ff0000;stroke-linecap:square;stroke-width:1.5;"/>
    <g clip-path="url(#p37d4ec2403)">
     <use style="fill:#ff0000;stroke:#ff0000;" x="483.48" xlink:href="#ma620cef382" y="126.36"/>
    </g>
   </g>
   <g id="line2d_14">
    <path clip-path="url(#p37d4ec2403)" d="M 456.012 68.184 
" style="fill:none;stroke:#ff0000;stroke-linecap:square;stroke-width:1.5;"/>
    <g clip-path="url(#p37d4ec2403)">
     <use style="fill:#ff0000;stroke:#ff0000;" x="456.012" xlink:href="#ma620cef382" y="68.184"/>
    </g>
   </g>
   <g id="line2d_15">
    <path clip-path="url(#p37d4ec2403)" d="M 414.022178 181 
L 428.223673 138.232653 
L 452.248163 65.883673 
L 474.457822 -1 
" style="fill:none;stroke:#000000;stroke-dasharray:5.55,2.4;stroke-dashoffset:0;stroke-width:1.5;"/>
   </g>
   <g id="text_5">
    <!-- $w$ -->
    <g transform="translate(405 50.004)scale(0.16 -0.16)">
     <use transform="scale(0.996264)" xlink:href="#URW_Palladio_L_Italic-119"/>
    </g>
   </g>
   <g id="text_6">
    <!-- $w-x$ -->
    <g transform="translate(373.608 93.636)scale(0.16 -0.16)">
     <use transform="scale(0.996264)" xlink:href="#URW_Palladio_L_Italic-119"/>
     <use transform="translate(93.791683 0)scale(1.038107)" xlink:href="#CMSY10-0"/>
     <use transform="translate(198.044108 0)scale(0.996264)" xlink:href="#URW_Palladio_L_Italic-120"/>
    </g>
   </g>
  </g>
 </g>
 <defs>
  <clipPath id="p02d1db9b08">
   <rect height="145.44" width="156.96" x="17.28" y="17.28"/>
  </clipPath>
  <clipPath id="p7836563297">
   <rect height="145.44" width="156.96" x="191.52" y="17.28"/>
  </clipPath>
  <clipPath id="p37d4ec2403">
   <rect height="145.44" width="156.96" x="365.76" y="17.28"/>
  </clipPath>
 </defs>
</svg>
